<?xml version="1.0"?>
<svg version="1.1" xmlns="http://www.w3.org/2000/svg" width="236" height="40" style=""><path fill="#c49c16" d="M40.664,36.416c0.032,0.544-0.128,0.864-0.736,0.864l-2.592,0c-0.672,0-0.8-0.32-0.832-1.056l-0.448-12.992l-0.064,0l-5.44,13.472c-0.192,0.512-0.512,0.576-0.864,0.576l-1.12,0c-0.48,0-0.768-0.096-0.992-0.608l-6.048-13.44l-0.064,0l-0.288,13.248c0,0.704-0.288,0.8-0.864,0.8l-2.176,0c-0.608,0-0.864-0.224-0.832-0.832l0.8-20.448c0.032-0.672,0.256-0.864,0.768-0.864l1.888,0c0.64,0,0.864,0.224,1.088,0.704l7.392,15.808l0.064,0l6.752-15.808c0.192-0.48,0.448-0.704,1.024-0.704l1.888,0c0.512,0,0.704,0.192,0.736,0.704z M60.424,29.472c0,0.768-0.256,0.928-1.056,0.928l-9.376,0c0.256,2.464,2.048,4.16,4.576,4.16c1.344,0,2.752-0.32,3.936-0.768c0.128-0.032,0.224-0.096,0.352-0.096c0.224,0,0.384,0.128,0.448,0.384l0.448,1.632c0.032,0.16,0.064,0.288,0.064,0.384c0,0.224-0.128,0.384-0.512,0.544c-1.568,0.704-3.712,1.024-5.376,1.024c-5.024,0-8-3.2-8-8.192c0-4.8,3.168-8.128,7.936-8.128c1.952,0,3.552,0.736,4.672,1.92c1.472,1.536,1.888,3.552,1.888,5.728l0,0.48z M56.616,27.872l0-0.352c-0.064-1.664-1.024-3.2-2.976-3.2c-2.08,0-3.328,1.664-3.584,3.552l6.56,0z M79.224,36.64c0,0.48-0.096,0.64-0.512,0.64l-2.816,0c-0.448,0-0.544-0.128-0.544-0.64l0-8.896c0-1.728-0.48-3.008-2.4-3.008c-1.248,0-2.848,0.672-3.84,1.536l0,10.368c0,0.48-0.128,0.64-0.608,0.64l-2.752,0c-0.384,0-0.512-0.16-0.512-0.576l0-21.152c0-0.576,0.256-0.736,0.704-0.8l2.208-0.288c0.128-0.032,0.288-0.032,0.416-0.032c0.352,0,0.544,0.16,0.544,0.608l0,8.032c1.344-1.12,3.36-1.728,5.056-1.728c3.584,0,5.056,2.272,5.056,5.728l0,9.568z M94.824,36.32c0,0.32-0.16,0.48-0.48,0.608c-0.992,0.416-2.304,0.736-3.584,0.736c-1.632,0-3.04-0.416-3.84-1.344c-0.992-1.12-1.024-2.432-1.024-4.768l0-7.136l-1.504,0c-0.608,0-0.704-0.128-0.704-0.8l0-1.216c0-0.384,0.192-0.64,0.576-0.64l1.632,0l0-3.488c0-0.544,0.288-0.704,0.8-0.768l2.304-0.288l0.16,0c0.416,0,0.608,0.224,0.608,0.704l0,3.84l3.616,0c0.384,0,0.608,0.128,0.608,0.544l0,1.504c0,0.384-0.256,0.608-0.64,0.608l-3.584,0l0,7.328c0,0.96,0.064,1.664,0.416,2.176c0.288,0.416,0.736,0.672,1.504,0.672c0.8,0,1.472-0.192,2.048-0.384c0.128-0.032,0.224-0.064,0.32-0.064c0.224,0,0.352,0.128,0.416,0.384l0.32,1.6c0.032,0.096,0.032,0.128,0.032,0.192z M114.296,36.672c0,0.384-0.256,0.608-0.64,0.608l-1.536,0c-1.664,0-2.4-0.8-2.624-1.888l-0.064,0c-0.8,1.184-2.88,2.272-4.64,2.272c-4.512,0-6.56-3.712-6.56-7.872c0-5.536,3.328-8.448,6.912-8.448c1.696,0,3.296,0.768,4.096,1.856l0.064-0.864c0.032-0.352,0.288-0.576,0.672-0.576l2.24,0c0.416,0,0.672,0.224,0.672,0.704l0,11.104c0,0.448,0.064,0.768,0.192,0.928c0.096,0.096,0.224,0.128,0.384,0.128l0.256,0c0.384,0,0.576,0.128,0.576,0.544l0,1.504z M109.016,32.32l0-6.176c-0.64-0.928-1.952-1.632-3.168-1.632c-1.952,0-3.616,1.664-3.616,5.024c0,2.688,1.024,4.96,3.392,4.96c1.568,0,2.912-1.184,3.392-2.176z M133.608,29.536c0,4.416-2.272,8.128-7.04,8.128c-1.44,0-3.168-0.832-4.064-1.824l-0.128,1.056c-0.032,0.288-0.288,0.384-0.704,0.384l-1.92,0c-0.544,0-0.768-0.256-0.768-0.8l0-20.864c0-0.512,0.128-0.8,0.64-0.864l2.368-0.32c0.128-0.032,0.224-0.032,0.32-0.032c0.32,0,0.544,0.128,0.544,0.64l0,7.872c1.024-0.896,2.56-1.568,4.224-1.568c1.76,0,3.072,0.576,4.096,1.504c1.696,1.504,2.432,4,2.432,6.688z M129.608,29.568c0-2.592-0.8-4.96-3.456-4.96c-1.184,0-2.432,0.64-3.296,1.44l0,6.848c0.768,0.864,1.952,1.568,3.136,1.568c2.784,0,3.616-2.4,3.616-4.896z"/><path fill="#" d="M161.952,36.768c0,0.32-0.16,0.512-0.576,0.512l-2.848,0c-0.672,0-0.896-0.256-1.088-0.768l-1.664-4.704l-8.096,0l-1.664,4.8c-0.128,0.416-0.352,0.672-0.864,0.672l-2.848,0c-0.32,0-0.448-0.16-0.448-0.416c0-0.096,0-0.224,0.064-0.352l7.808-20.736c0.16-0.384,0.384-0.64,0.864-0.64l2.56,0c0.48,0,0.768,0.224,0.896,0.576l7.84,20.64c0.064,0.16,0.064,0.288,0.064,0.416z M154.688,28.704l-2.272-6.752c-0.288-0.896-0.48-1.568-0.64-2.08l-0.064,0c-0.16,0.544-0.352,1.216-0.672,2.112l-2.272,6.72l5.92,0z M170,36.48c0,0.544-0.256,0.8-0.704,0.8l-2.432,0c-0.448,0-0.736-0.224-0.736-0.768l0-20.992c0-0.544,0.224-0.704,0.64-0.768l2.304-0.32c0.064,0,0.16-0.032,0.224-0.032c0.384,0,0.704,0.192,0.704,0.704l0,21.376z M180.256,17.696c0,1.248-1.088,2.016-2.144,2.016s-2.176-0.704-2.176-1.984s1.056-2.048,2.176-2.048c1.088,0,2.144,0.736,2.144,2.016z M180.064,36.48c0,0.576-0.256,0.8-0.8,0.8l-2.24,0c-0.576,0-0.832-0.224-0.832-0.8l0-13.984c0-0.544,0.32-0.736,0.832-0.736l2.24,0c0.512,0,0.8,0.16,0.8,0.736l0,13.984z"/></svg>
